SplineFontDB: 3.0
FontName: Untitled1
FullName: Untitled1
FamilyName: Untitled1
Weight: Medium
Copyright: Created by hn,,, with FontForge 2.0 (http://fontforge.sf.net)
UComments: "2014-5-12: Created." 
Version: 001.000
ItalicAngle: 0
UnderlinePosition: -100
UnderlineWidth: 50
Ascent: 800
Descent: 200
LayerCount: 2
Layer: 0 0 "+gMxmbwAA"  1
Layer: 1 0 "+Uk1mbwAA"  0
XUID: [1021 957 1260883539 15792672]
OS2Version: 0
OS2_WeightWidthSlopeOnly: 0
OS2_UseTypoMetrics: 1
CreationTime: 1399874503
ModificationTime: 1399874526
OS2TypoAscent: 0
OS2TypoAOffset: 1
OS2TypoDescent: 0
OS2TypoDOffset: 1
OS2TypoLinegap: 0
OS2WinAscent: 0
OS2WinAOffset: 1
OS2WinDescent: 0
OS2WinDOffset: 1
HheadAscent: 0
HheadAOffset: 1
HheadDescent: 0
HheadDOffset: 1
OS2Vendor: 'PfEd'
DEI: 91125
Encoding: Original
UnicodeInterp: none
NameList: Adobe Glyph List
DisplaySize: -48
AntiAlias: 1
FitToEm: 1
WinInfo: 0 12 10
BeginChars: 26 26

StartChar: A
Encoding: 0 65 0
Width: 786
Flags: W
HStem: 0 35<50.0117 110.333 142 196 226.298 276.989 408.011 476.537 510 652 684.641 735.988> 197 35<241 437> 684 20G<374.5 385.5>
VStem: 182 35<43.0211 119> 488 35<48.75 135.547>
LayerCount: 2
Fore
SplineSet
400 682 m 2
 655 101 l 2
 675 56 692 39 714 35 c 0
 723 34 736 32 736 18 c 0
 736 0 720 0 702 0 c 2
 441 0 l 2
 423 0 408 0 408 18 c 0
 408 27 415 34 425 35 c 0
 436 36 464 38 488 62 c 1
 487 83 486 99 451 197 c 1
 231 197 l 1
 224 165 217 133 217 100 c 0
 217 40 242 36 256 35 c 0
 263 34 277 33 277 18 c 0
 277 0 262 0 244 0 c 2
 84 0 l 2
 66 0 50 0 50 18 c 0
 50 33 66 35 71 35 c 0
 98 38 119 53 131 85 c 2
 359 683 l 2
 364 695 369 704 380 704 c 0
 391 704 393 699 400 682 c 2
241 232 m 1
 437 232 l 1
 420 278 360 422 329 489 c 1
 296 405 264 320 241 232 c 1
182 120 m 1
 165 77 l 2
 159 61 155 49 142 35 c 1
 196 35 l 1
 182 58 182 96 182 100 c 0
 182 106 182 107 183 109 c 1
 183 119 l 1
 182 120 l 1
344 543 m 1
 393 431 l 2
 436 331 523 128 523 67 c 0
 523 55 520 41 510 35 c 1
 652 35 l 1
 638 53 627 77 623 87 c 2
 380 640 l 1
 344 543 l 1
EndSplineSet
EndChar

StartChar: B
Encoding: 1 66 1
Width: 712
Flags: W
HStem: 0 35<50.0131 140.891 172 281 312.65 428.389> 337 35<303 398.895> 650 35<50.0124 141.408 172 281 317.196 410.66>
VStem: 146 35<41.1326 643.867> 268 35<45.3357 337 372 637.484> 459 35<427.679 594.882> 490 35<96.0182 282.085> 589 35<460.908 582.747> 627 35<126.613 255.683>
LayerCount: 2
Fore
SplineSet
181 594 m 2xf980
 181 91 l 2
 181 78 181 53 172 35 c 1
 281 35 l 1
 268 51 268 71 268 86 c 2
 268 599 l 2
 268 614 268 634 281 650 c 1
 172 650 l 1
 181 632 181 607 181 594 c 2xf980
453 384 m 1
 519 398 589 450 589 514 c 0
 589 613 518 638 449 646 c 1
 472 622 494 579 494 510 c 0xfd80
 494 467 486 416 453 384 c 1
303 596 m 2
 303 372 l 1
 402 374 459 398 459 510 c 0
 459 615 404 650 360 650 c 0
 336 650 321 640 317 638 c 0
 303 627 303 616 303 596 c 2
513 367 m 1
 586 347 662 291 662 187 c 0
 662 48 504 0 381 0 c 2
 84 0 l 2
 66 0 50 0 50 18 c 0
 50 35 68 35 79 35 c 0
 142 35 146 43 146 93 c 2
 146 592 l 2
 146 640 143 650 83 650 c 0
 67 650 50 650 50 667 c 0
 50 685 66 685 84 685 c 2
 387 685 l 2
 509 685 624 653 624 514 c 0
 624 446 569 396 513 367 c 1
303 89 m 2
 303 70 303 35 362 35 c 0
 487 35 490 148 490 187 c 0xfb80
 490 219 487 284 448 314 c 0
 417 337 383 337 303 337 c 1
 303 89 l 2
481 47 m 1
 567 67 627 111 627 187 c 0
 627 274 562 326 470 341 c 1
 510 308 525 256 525 187 c 0
 525 142 518 89 481 47 c 1
EndSplineSet
EndChar

StartChar: C
Encoding: 2 67 2
Width: 748
Flags: W
HStem: -19 48<304.915 530.332> 623 35<556.179 632.235> 669 35<345.631 476.875>
VStem: 50 35<225.57 462.316> 191 35<186.897 492.034> 635 35<471.012 523.545 568 630 660.605 703.985>
LayerCount: 2
Fore
SplineSet
670 671 m 2
 670 504 l 2
 670 487 670 471 653 471 c 0
 640 471 637 481 634 490 c 0
 600 596 480 669 405 669 c 0
 298 669 226 538 226 341 c 0
 226 186 265 29 420 29 c 0
 509 29 598 69 656 135 c 0
 666 146 670 149 677 149 c 0
 683 149 698 143 698 129 c 0
 698 115 647 65 601 36 c 1
 528 -8 457 -19 404 -19 c 0
 231 -19 50 88 50 343 c 0
 50 599 235 704 402 704 c 0
 418 704 461 704 512 682 c 0
 532 673 567 658 602 658 c 0
 609 658 632 658 635 686 c 0
 637 704 652 704 653 704 c 0
 670 704 670 688 670 671 c 2
635 568 m 1
 635 630 l 1
 627 625 614 623 603 623 c 0
 598 623 590 623 585 624 c 1
 610 598 623 585 635 568 c 1
280 646 m 1
 280 647 l 1
 186 615 85 526 85 342 c 0
 85 220 132 85 296 32 c 1
 206 104 191 242 191 341 c 0
 191 537 257 623 280 646 c 1
EndSplineSet
EndChar

StartChar: D
Encoding: 3 68 3
Width: 775
Flags: W
HStem: 0 35<50.0131 129.045 160 274 305.65 429.293> 650 35<50.0138 128.992 160 274 314.428 426.876>
VStem: 133 35<39.3205 645.369> 261 35<45.3357 637.486> 549 35<196.829 491.586> 690 35<240.976 459.328>
LayerCount: 2
Fore
SplineSet
84 685 m 2
 373 685 l 2
 535 685 725 594 725 355 c 0
 725 109 547 0 372 0 c 2
 84 0 l 2
 66 0 50 0 50 18 c 0
 50 35 68 35 78 35 c 0
 129 35 133 43 133 92 c 2
 133 593 l 2
 133 642 129 650 77 650 c 0
 69 650 50 650 50 667 c 0
 50 685 66 685 84 685 c 2
495 630 m 1
 494 630 l 1
 545 576 584 497 584 353 c 0
 584 237 564 126 499 58 c 1
 598 93 690 185 690 355 c 0
 690 474 638 584 495 630 c 1
160 35 m 1
 274 35 l 1
 261 51 261 71 261 86 c 2
 261 599 l 2
 261 613 261 635 274 650 c 1
 160 650 l 1
 168 632 168 608 168 595 c 2
 168 90 l 2
 168 77 168 53 160 35 c 1
296 596 m 2
 296 89 l 2
 296 70 296 35 355 35 c 0
 523 35 549 226 549 353 c 0
 549 576 446 650 362 650 c 0
 341 650 323 645 314 638 c 1
 296 627 296 618 296 596 c 2
EndSplineSet
EndChar

StartChar: E
Encoding: 4 69 4
Width: 725
Flags: W
HStem: 0 35<50.0124 133.825 165 271 302.277 492.658 545 617.458> 336 36<295 385.779> 650 35<50.0138 133.729 165 271 302.277 488.438 537 594>
VStem: 138 35<40.2306 644.769> 260 35<39.4922 336 372 645.508> 455 35<197.01 277.762 316 400 440.643 531.988> 594 35<489.012 562.672 602 650> 640 35<145.436 204.98>
LayerCount: 2
Fore
SplineSet
295 336 m 1
 295 102 l 2
 295 35 314 35 338 35 c 2
 393 35 l 2
 448 35 499 49 551 80 c 0
 624 123 634 165 640 191 c 0
 640 192 644 205 658 205 c 0
 666 205 675 198 675 187 c 0
 675 182 647 15 646 14 c 0
 643 0 633 0 614 0 c 2
 84 0 l 2
 66 0 50 0 50 18 c 0
 50 35 67 35 82 35 c 0
 135 35 138 45 138 92 c 2
 138 593 l 2
 138 642 134 650 77 650 c 0
 69 650 50 650 50 667 c 0
 50 685 66 685 84 685 c 2
 596 685 l 2
 627 685 629 683 629 652 c 2
 629 522 l 2
 629 505 629 489 612 489 c 0
 596 489 595 504 594 512 c 0
 588 581 521 650 386 650 c 2
 338 650 l 2
 314 650 295 650 295 583 c 2
 295 372 l 1
 347 373 449 380 455 509 c 0
 455 517 456 532 473 532 c 0
 490 532 490 516 490 500 c 2
 490 229 l 2
 490 211 490 197 473 197 c 0
 456 197 456 210 455 224 c 0
 455 230 451 284 403 315 c 1
 368 336 320 336 295 336 c 1
594 650 m 1
 537 650 l 1
 558 637 577 621 594 602 c 1
 594 650 l 1
399 357 m 1
 399 356 l 1
 400 356 431 343 455 316 c 1
 455 400 l 1
 437 379 415 364 399 357 c 1
173 595 m 2
 173 90 l 2
 173 78 173 53 165 35 c 1
 271 35 l 1
 267 44 260 64 260 100 c 2
 260 585 l 2
 260 594 260 627 271 650 c 1
 165 650 l 1
 173 632 173 607 173 595 c 2
545 35 m 1
 615 35 l 1
 616 43 623 87 624 91 c 1
 604 73 577 52 545 36 c 1
 545 35 l 1
EndSplineSet
EndChar

StartChar: F
Encoding: 5 70 5
Width: 669
Flags: W
HStem: 0 35<50.0124 133.825 165 270 300.944 405.988> 336 36<295 378.394> 650 35<50.0138 133.729 165 271 302.277 482.447 530 584>
VStem: 138 35<40.2306 644.769> 260 35<42.332 336 372 645.508> 444 35<197.01 280.839 317 398 437.402 531.988> 584 35<489.012 565.691 603 650>
LayerCount: 2
Fore
SplineSet
295 336 m 1
 295 95 l 2
 295 42 299 35 376 35 c 0
 389 35 406 35 406 18 c 0
 406 0 391 0 373 0 c 2
 84 0 l 2
 66 0 50 0 50 18 c 0
 50 35 67 35 82 35 c 0
 135 35 138 45 138 92 c 2
 138 593 l 2
 138 642 134 650 77 650 c 0
 69 650 50 650 50 667 c 0
 50 685 66 685 84 685 c 2
 586 685 l 2
 617 685 619 683 619 652 c 2
 619 522 l 2
 619 505 619 489 602 489 c 0
 586 489 585 504 584 512 c 0
 578 581 513 650 385 650 c 2
 338 650 l 2
 314 650 295 650 295 583 c 2
 295 372 l 1
 368 375 438 395 444 511 c 0
 445 522 449 532 462 532 c 0
 479 532 479 516 479 500 c 2
 479 229 l 2
 479 211 479 197 462 197 c 0
 446 197 445 210 444 222 c 0
 436 334 336 336 295 336 c 1
584 650 m 1
 530 650 l 1
 553 636 570 618 584 603 c 1
 584 650 l 1
444 317 m 1
 444 398 l 1
 430 381 410 365 391 356 c 1
 403 351 429 336 444 317 c 1
173 595 m 2
 173 90 l 2
 173 78 173 53 165 35 c 1
 270 35 l 1
 260 54 260 78 260 93 c 2
 260 585 l 2
 260 594 260 627 271 650 c 1
 165 650 l 1
 173 632 173 607 173 595 c 2
EndSplineSet
EndChar

StartChar: G
Encoding: 6 71 6
Width: 811
Flags: W
HStem: -19 35<335.746 507.044> 255 35<423.015 492.128 527 670 702.594 760.988> 623 35<584.171 631.227> 669 35<345.824 476.543>
VStem: 50 35<227.9 462.316> 191 35<176.382 491.151> 525 35<38.7667 223.662> 634 35<471.012 527.742 568 630 660.499 703.985> 644 35<64.2695 230.852>
LayerCount: 2
Fore
SplineSet
670 255 m 1xfe80
 527 255 l 1
 560 225 560 194 560 120 c 0
 560 93 560 54 556 38 c 1
 595 49 630 65 644 72 c 1
 644 174 l 2
 644 189 644 223 670 255 c 1xfe80
408 -19 m 0
 216 -19 50 101 50 343 c 0
 50 599 235 704 402 704 c 0
 447 704 480 696 518 679 c 0
 532 673 567 658 602 658 c 0
 622 658 632 669 634 686 c 0
 636 704 651 704 652 704 c 0
 669 704 669 688 669 671 c 2
 669 504 l 2xff
 669 487 669 471 652 471 c 0
 639 471 636 479 631 498 c 0
 607 576 495 669 405 669 c 0
 299 669 226 541 226 340 c 0
 226 263 235 187 258 128 c 0
 299 24 369 16 410 16 c 0
 419 16 465 16 496 27 c 0
 525 38 525 53 525 82 c 2
 525 158 l 2
 525 187 525 247 442 254 c 0
 428 255 423 263 423 272 c 0
 423 290 439 290 459 290 c 2
 726 290 l 2
 744 290 761 290 761 272 c 0
 761 269 760 256 742 254 c 0
 706 251 679 226 679 172 c 2
 679 80 l 2
 679 52 678 51 653 38 c 0
 584 3 495 -19 408 -19 c 0
634 568 m 1
 634 630 l 1
 626 625 613 623 602 623 c 0
 597 623 590 623 584 624 c 1
 599 611 618 590 634 568 c 1
268 42 m 1
 199 125 191 262 191 340 c 0
 191 533 254 620 280 646 c 1
 280 647 l 1
 186 615 85 526 85 342 c 0
 85 214 136 97 268 42 c 1
EndSplineSet
EndChar

StartChar: H
Encoding: 7 72 7
Width: 844
Flags: W
HStem: 0 35<50.0124 133.825 165 274 305.413 388.988 455.012 538.825 570 679 710.413 793.988> 324 46<301 543> 650 35<50.0138 133.729 165 274 305.324 388.988 455.014 538.729 570 679 710.324 793.988>
VStem: 138 35<40.2306 644.769> 266 35<40.2306 324 370 644.769> 543 35<40.2306 324 370 644.769> 671 35<40.2306 644.769>
LayerCount: 2
Fore
SplineSet
706 593 m 2
 706 92 l 2
 706 44 709 35 766 35 c 0
 777 35 794 35 794 18 c 0
 794 0 779 0 761 0 c 2
 489 0 l 2
 471 0 455 0 455 18 c 0
 455 35 472 35 487 35 c 0
 540 35 543 45 543 92 c 2
 543 324 l 1
 301 324 l 1
 301 92 l 2
 301 44 304 35 361 35 c 0
 372 35 389 35 389 18 c 0
 389 0 374 0 356 0 c 2
 84 0 l 2
 66 0 50 0 50 18 c 0
 50 35 67 35 82 35 c 0
 135 35 138 45 138 92 c 2
 138 593 l 2
 138 642 134 650 77 650 c 0
 69 650 50 650 50 667 c 0
 50 685 66 685 84 685 c 2
 356 685 l 2
 374 685 389 685 389 667 c 0
 389 650 372 650 363 650 c 0
 305 650 301 643 301 593 c 2
 301 370 l 1
 543 370 l 1
 543 593 l 2
 543 642 539 650 482 650 c 0
 474 650 455 650 455 667 c 0
 455 685 471 685 489 685 c 2
 761 685 l 2
 779 685 794 685 794 667 c 0
 794 650 777 650 768 650 c 0
 710 650 706 643 706 593 c 2
173 595 m 2
 173 90 l 2
 173 78 173 53 165 35 c 1
 274 35 l 1
 266 53 266 78 266 90 c 2
 266 595 l 2
 266 607 266 632 274 650 c 1
 165 650 l 1
 173 632 173 607 173 595 c 2
578 595 m 2
 578 90 l 2
 578 78 578 53 570 35 c 1
 679 35 l 1
 671 53 671 78 671 90 c 2
 671 595 l 2
 671 607 671 632 679 650 c 1
 570 650 l 1
 578 632 578 607 578 595 c 2
EndSplineSet
EndChar

StartChar: I
Encoding: 8 73 8
Width: 449
Flags: W
HStem: 0 35<50.0131 138.468 169 280 310.482 398.988> 650 35<50.0124 138.587 169 280 310.532 398.988>
VStem: 143 35<40.3789 644.841> 271 35<41.0354 643.965>
LayerCount: 2
Fore
SplineSet
306 593 m 2
 306 92 l 2
 306 43 310 35 371 35 c 0
 382 35 399 35 399 18 c 0
 399 0 384 0 366 0 c 2
 84 0 l 2
 66 0 50 0 50 18 c 0
 50 35 68 35 81 35 c 0
 140 35 143 44 143 92 c 2
 143 593 l 2
 143 640 140 650 83 650 c 0
 67 650 50 650 50 667 c 0
 50 685 66 685 84 685 c 2
 366 685 l 2
 384 685 399 685 399 667 c 0
 399 650 383 650 368 650 c 0
 309 650 306 640 306 593 c 2
178 595 m 2
 178 90 l 2
 178 75 178 53 169 35 c 1
 280 35 l 1
 271 53 271 75 271 90 c 2
 271 595 l 2
 271 610 271 632 280 650 c 1
 169 650 l 1
 178 632 178 610 178 595 c 2
EndSplineSet
EndChar

StartChar: J
Encoding: 9 74 9
Width: 570
Flags: W
HStem: -75 35<167.544 281.905> 71 35<90.0285 154.157> 650 35<167.013 264.096 295 405 436.46 519.989>
VStem: 50 35<-3.75832 65.7299> 159 35<2.85224 64.9004> 269 35<-21.2017 643.803> 397 35<35.3244 644.9>
LayerCount: 2
Fore
SplineSet
201 685 m 2
 487 685 l 2
 505 685 520 685 520 667 c 0
 520 658 512 650 503 650 c 0
 446 649 432 649 432 604 c 2
 432 184 l 2
 432 152 432 96 431 87 c 0
 416 -36 322 -75 211 -75 c 0
 114 -75 50 -27 50 36 c 0
 50 77 84 106 122 106 c 0
 160 106 194 77 194 36 c 0
 194 21 189 2 176 -12 c 0
 171 -17 167 -21 167 -29 c 0
 167 -40 197 -40 204 -40 c 0
 228 -40 244 -29 252 -22 c 0
 269 -5 269 14 269 31 c 2
 269 592 l 2
 269 643 265 650 196 650 c 0
 185 650 167 650 167 667 c 0
 167 685 183 685 201 685 c 2
131 -24 m 1
 134 -5 143 5 147 9 c 0
 151 12 159 21 159 36 c 0
 159 59 139 71 122 71 c 0
 107 71 85 61 85 35 c 0
 85 -2 121 -19 131 -24 c 1
304 594 m 2
 304 29 l 2
 304 11 304 -8 289 -31 c 1
 365 -11 388 35 396 86 c 0
 397 96 397 146 397 176 c 2
 397 579 l 2
 397 613 397 632 405 650 c 1
 295 650 l 1
 304 632 304 605 304 594 c 2
EndSplineSet
EndChar

StartChar: K
Encoding: 10 75 10
Width: 845
Flags: W
HStem: 0 35<50.0124 133.825 165 274 305.413 388.988 506.011 547.722 581.056 712 744.537 794.989> 650 35<50.0138 133.729 165 274 305.324 388.988 480.011 529.541 561 643 685.061 756.989>
VStem: 138 35<40.2306 644.769> 266 35<40.2306 285 343 644.769> 539 35<596.135 641.062>
LayerCount: 2
Fore
SplineSet
439 416 m 1
 728 70 l 2
 733 64 740 57 749 48 c 0
 757 41 761 37 776 35 c 0
 783 34 795 31 795 18 c 0
 795 0 780 0 762 0 c 2
 539 0 l 2
 521 0 506 0 506 18 c 0
 506 31 512 32 536 36 c 0
 540 37 542 39 548 40 c 1
 543 53 543 55 532 69 c 2
 506 100 l 1
 329 311 l 1
 301 285 l 1
 301 92 l 2
 301 44 304 35 361 35 c 0
 372 35 389 35 389 18 c 0
 389 0 374 0 356 0 c 2
 84 0 l 2
 66 0 50 0 50 18 c 0
 50 35 67 35 82 35 c 0
 135 35 138 45 138 92 c 2
 138 593 l 2
 138 642 134 650 77 650 c 0
 69 650 50 650 50 667 c 0
 50 685 66 685 84 685 c 2
 356 685 l 2
 374 685 389 685 389 667 c 0
 389 650 372 650 363 650 c 0
 305 650 301 643 301 593 c 2
 301 343 l 1
 325 364 382 421 405 443 c 2
 514 546 l 2
 523 555 539 572 539 600 c 0
 539 622 528 646 501 650 c 0
 494 651 480 652 480 667 c 0
 480 685 495 685 513 685 c 2
 724 685 l 2
 742 685 757 685 757 667 c 0
 757 652 743 651 735 650 c 0
 673 644 613 585 504 479 c 2
 439 416 l 1
643 650 m 1
 561 650 l 1
 574 629 574 610 574 595 c 1
 610 627 612 627 643 650 c 1
165 35 m 1
 274 35 l 1
 266 53 266 78 266 90 c 2
 266 595 l 2
 266 607 266 632 274 650 c 1
 165 650 l 1
 173 632 173 607 173 595 c 2
 173 90 l 2
 173 78 173 53 165 35 c 1
414 393 m 1
 355 335 l 1
 365 324 434 241 454 216 c 0
 477 189 534 122 556 94 c 0
 582 62 582 52 583 35 c 1
 712 35 l 1
 414 393 l 1
EndSplineSet
EndChar

StartChar: L
Encoding: 11 76 11
Width: 725
Flags: W
HStem: 0 35<50.0124 133.825 165 273 304.277 486.568 536 614> 650 35<50.0138 133.729 165 270 300.691 379.988>
VStem: 138 35<40.2306 644.769> 262 35<39.4922 645.68>
LayerCount: 2
Fore
SplineSet
297 593 m 2
 297 102 l 2
 297 35 316 35 340 35 c 2
 392 35 l 2
 425 35 476 39 540 80 c 0
 623 132 634 181 640 210 c 0
 642 218 650 224 658 224 c 0
 666 224 675 217 675 206 c 0
 675 202 647 16 646 13 c 0
 642 0 633 0 614 0 c 2
 84 0 l 2
 66 0 50 0 50 18 c 0
 50 35 67 35 82 35 c 0
 135 35 138 45 138 92 c 2
 138 593 l 2
 138 642 134 650 77 650 c 0
 69 650 50 650 50 667 c 0
 50 685 66 685 84 685 c 2
 347 685 l 2
 365 685 380 685 380 667 c 0
 380 650 363 650 352 650 c 0
 300 650 297 642 297 593 c 2
173 595 m 2
 173 90 l 2
 173 78 173 53 165 35 c 1
 273 35 l 1
 269 44 262 64 262 100 c 2
 262 595 l 2
 262 608 262 632 270 650 c 1
 165 650 l 1
 173 632 173 607 173 595 c 2
614 35 m 1
 624 103 l 1
 607 86 581 61 536 36 c 1
 536 35 l 1
 614 35 l 1
EndSplineSet
EndChar

StartChar: M
Encoding: 12 77 12
Width: 1008
Flags: W
HStem: 0 35<50.0117 117.782 150 167 200.762 271.989 624.012 691.782 724 853 886.762 957.989> 650 35<53.0131 135.965 189 276 746 852 884.218 951.989>
VStem: 137 42<53.3607 604> 711 35<54.5645 604> 830 35<56.1308 630.436>
LayerCount: 2
Fore
SplineSet
499 210 m 1
 689 664 l 2
 698 685 700 685 726 685 c 2
 919 685 l 2
 937 685 952 685 952 667 c 0
 952 656 943 651 933 650 c 0
 865 644 865 600 865 579 c 2
 865 106 l 2
 865 83 865 41 942 35 c 0
 950 34 958 27 958 18 c 0
 958 0 943 0 925 0 c 2
 658 0 l 2
 640 0 624 0 624 18 c 0
 624 19 624 33 643 35 c 0
 711 41 711 85 711 106 c 2
 711 604 l 1
 710 605 l 1
 465 20 l 2
 460 8 457 0 445 0 c 0
 439 0 432 3 424 21 c 2
 180 605 l 1
 179 604 l 1
 179 106 l 2
 179 83 179 41 256 35 c 0
 264 34 272 27 272 18 c 0
 272 0 257 0 239 0 c 2
 84 0 l 2
 66 0 50 0 50 18 c 0
 50 19 50 33 69 35 c 0
 137 41 137 85 137 106 c 2
 137 640 l 1
 115 648 88 650 76 650 c 0
 71 650 53 650 53 667 c 0
 53 685 68 685 86 685 c 2
 272 685 l 2
 299 685 300 685 308 665 c 2
 499 210 l 1
469 192 m 2
 276 650 l 1
 189 650 l 1
 203 638 211 621 216 608 c 2
 444 64 l 1
 446 64 l 1
 490 170 l 1
 478 174 477 175 469 192 c 2
167 35 m 1
 158 46 l 1
 157 45 157 44 156 43 c 0
 154 41 152 38 150 35 c 1
 167 35 l 1
746 650 m 1
 746 104 l 2
 746 86 746 60 724 35 c 1
 853 35 l 1
 830 60 830 86 830 104 c 2
 830 581 l 2
 830 599 830 625 852 650 c 1
 746 650 l 1
EndSplineSet
EndChar

StartChar: N
Encoding: 13 78 13
Width: 777
Flags: W
HStem: 0 35<50.0124 126.625 190.727 271.988> 650 35<62.0109 124.778 158 277 514.013 596 657.817 726.988>
VStem: 137 42<44.3377 567> 607 42<263 640.911> 614 35<51 195>
LayerCount: 2
Fore
SplineSet
137 595 m 2xe8
 137 609 137 611 139 619 c 1
 129 631 110 647 83 650 c 0
 77 650 62 652 62 667 c 0
 62 685 77 685 95 685 c 2
 269 685 l 2
 292 685 295 685 305 671 c 2
 607 263 l 1
 607 576 l 2
 607 629 599 649 543 650 c 0
 532 650 514 650 514 667 c 0
 514 685 530 685 548 685 c 2
 694 685 l 2
 712 685 727 685 727 667 c 0
 727 651 710 650 704 650 c 0
 658 649 649 635 649 579 c 2xf0
 649 14 l 2
 649 -3 649 -19 632 -19 c 0
 625 -19 620 -16 611 -4 c 2
 179 567 l 1
 179 109 l 2
 179 57 187 36 242 35 c 0
 256 35 272 34 272 18 c 0
 272 0 257 0 239 0 c 2
 84 0 l 2
 66 0 50 0 50 18 c 0
 50 34 67 35 78 35 c 0
 129 36 137 54 137 107 c 2
 137 595 l 2xe8
614 51 m 1xe8
 614 195 l 1
 277 650 l 1
 158 650 l 1
 169 640 169 638 179 626 c 2
 614 51 l 1xe8
EndSplineSet
EndChar

StartChar: O
Encoding: 14 79 14
Width: 812
Flags: W
HStem: -19 35<336.951 475.27> 669 35<336.73 475.049>
VStem: 50 35<224.546 458.172> 191 35<175.186 505.776> 586 35<179.099 509.664> 727 35<226.822 460.447>
LayerCount: 2
Fore
SplineSet
762 342 m 0
 762 96 589 -19 406 -19 c 0
 227 -19 50 91 50 343 c 0
 50 589 223 704 406 704 c 0
 585 704 762 594 762 342 c 0
268 641 m 1
 267 642 l 1
 209 620 85 546 85 342 c 0
 85 148 200 68 269 42 c 1
 203 120 191 245 191 343 c 0
 191 453 207 570 268 641 c 1
545 642 m 1
 544 641 l 1
 609 565 621 440 621 342 c 0
 621 232 605 115 543 42 c 1
 603 65 727 139 727 343 c 0
 727 537 612 617 545 642 c 1
406 16 m 0
 566 16 586 223 586 343 c 0
 586 457 568 669 406 669 c 0
 246 669 226 462 226 342 c 0
 226 228 244 16 406 16 c 0
EndSplineSet
EndChar

StartChar: P
Encoding: 15 80 15
Width: 683
Flags: W
HStem: 0 35<50.0131 129.045 160 269 300.271 384.988> 307 36<296 418.522> 650 35<50.0138 128.992 160 274 304.996 422.88>
VStem: 133 35<39.3205 645.369> 261 35<40.2784 308 343 639.83> 461 35<392.289 606.461> 598 35<431.67 566.826>
LayerCount: 2
Fore
SplineSet
296 308 m 1
 296 92 l 2
 296 43 300 35 357 35 c 0
 368 35 385 35 385 18 c 0
 385 0 370 0 352 0 c 2
 84 0 l 2
 66 0 50 0 50 18 c 0
 50 35 68 35 78 35 c 0
 129 35 133 43 133 92 c 2
 133 593 l 2
 133 642 129 650 77 650 c 0
 69 650 50 650 50 667 c 0
 50 685 66 685 84 685 c 2
 376 685 l 2
 505 685 633 639 633 497 c 0
 633 402 560 307 357 307 c 2
 323 307 l 1
 321 308 300 308 296 308 c 1
461 353 m 1
 553 376 598 427 598 497 c 0
 598 598 520 628 465 641 c 1
 491 604 496 551 496 498 c 0
 496 458 493 395 461 353 c 1
296 596 m 2
 296 343 l 1
 346 343 l 2
 408 343 461 355 461 498 c 0
 461 623 428 650 356 650 c 0
 296 650 296 616 296 596 c 2
160 35 m 1
 269 35 l 1
 261 53 261 80 261 90 c 2
 261 599 l 2
 261 614 261 634 274 650 c 1
 160 650 l 1
 168 632 168 608 168 595 c 2
 168 90 l 2
 168 77 168 53 160 35 c 1
EndSplineSet
EndChar

StartChar: Q
Encoding: 16 81 16
Width: 812
Flags: W
HStem: -179 35<470.253 593.793> -149 41<667.746 748.818> -19 35<340.724 462.11> 669 35<336.73 475.049>
VStem: 50 35<224.861 458.172> 191 35<175.186 505.776> 586 35<179.099 509.664> 727 35<226.498 460.447>
LayerCount: 2
Fore
SplineSet
495 -9 m 1xbf
 518 -59 575 -117 667 -117 c 0
 683 -117 694 -117 722 -110 c 0
 729 -108 730 -108 732 -108 c 0
 740 -108 749 -114 749 -126 c 0
 749 -138 739 -142 721 -149 c 0x7f
 669 -169 614 -179 564 -179 c 0
 440 -179 341 -107 296 -4 c 1
 178 27 50 129 50 343 c 0
 50 589 223 704 406 704 c 0
 585 704 762 594 762 342 c 0
 762 132 636 20 495 -9 c 1xbf
268 641 m 1
 267 642 l 1
 209 620 85 546 85 342 c 0
 85 148 200 68 269 42 c 1
 203 120 191 245 191 343 c 0
 191 453 207 570 268 641 c 1
545 642 m 1
 544 641 l 1
 609 565 621 440 621 342 c 0
 621 232 605 115 543 42 c 1
 603 65 727 139 727 343 c 0
 727 537 612 617 545 642 c 1
406 16 m 0
 566 16 586 223 586 343 c 0
 586 457 568 669 406 669 c 0
 246 669 226 462 226 342 c 0
 226 228 244 16 406 16 c 0
340 -14 m 1
 392 -104 479 -144 564 -144 c 0xbf
 577 -144 595 -144 595 -142 c 0
 595 -141 594 -141 584 -137 c 0
 534 -117 487 -79 460 -16 c 1
 432 -19 411 -19 406 -19 c 0
 405 -19 368 -19 340 -14 c 1
EndSplineSet
EndChar

StartChar: R
Encoding: 17 82 17
Width: 787
Flags: W
HStem: 0 35<50.0138 134.412 166 275 306.271 390.988 559 656 690.669 736.989> 314 35<302 338 379.326 441.367> 650 35<50.0138 134.412 166 280 311.296 441.537>
VStem: 139 35<40.3023 644.722> 267 35<40.2784 314 349 639.303> 491 35<395.86 594.827> 628 35<430.113 561.6>
LayerCount: 2
Fore
SplineSet
302 314 m 1
 302 92 l 2
 302 43 306 35 363 35 c 0
 374 35 391 35 391 18 c 0
 391 0 376 0 358 0 c 2
 84 0 l 2
 66 0 50 0 50 18 c 0
 50 35 69 35 77 35 c 0
 134 35 139 42 139 92 c 2
 139 593 l 2
 139 643 134 650 77 650 c 0
 69 650 50 650 50 667 c 0
 50 685 66 685 84 685 c 2
 398 685 l 2
 516 685 663 637 663 498 c 0
 663 379 577 341 488 325 c 1
 555 217 605 151 612 141 c 0
 636 109 685 43 722 35 c 0
 731 33 737 26 737 18 c 0
 737 0 722 0 704 0 c 2
 566 0 l 2
 543 0 540 0 533 12 c 1
 522 27 498 66 488 82 c 2
 338 314 l 1
 302 314 l 1
495 363 m 1
 598 382 628 433 628 498 c 0
 628 599 529 630 488 639 c 1
 520 598 526 545 526 497 c 0
 526 453 523 400 495 363 c 1
302 596 m 2
 302 349 l 1
 460 349 491 368 491 497 c 0
 491 615 449 650 364 650 c 0
 302 650 302 617 302 596 c 2
166 35 m 1
 275 35 l 1
 267 53 267 80 267 90 c 2
 267 599 l 2
 267 614 267 634 280 650 c 1
 166 650 l 1
 174 632 174 605 174 595 c 2
 174 90 l 2
 174 81 174 53 166 35 c 1
379 314 m 1
 559 35 l 1
 656 35 l 1
 573 118 465 296 450 320 c 1
 435 318 413 316 398 316 c 0
 390 316 386 315 379 314 c 1
EndSplineSet
EndChar

StartChar: S
Encoding: 18 83 18
Width: 601
Flags: W
HStem: -12 35<215.759 368.967> 16 35<93.7046 140> 669 35<215.949 344.117>
VStem: 50 35<439.211 586.512> 58 35<41 105 148.156 239.988> 134 35<520.101 625.511> 415 35<65.3706 192.718> 468 35<486.012 552.18 591 651> 516 35<123.401 264.937>
LayerCount: 2
Fore
SplineSet
93 105 m 1x6f80
 93 41 l 1
 108 49 125 51 140 51 c 1
 109 81 94 105 94 105 c 1
 93 105 l 1x6f80
231 306 m 0
 77 371 50 439 50 504 c 0
 50 637 141 704 277 704 c 0
 307 704 330 700 362 688 c 0
 374 684 397 676 422 676 c 0
 447 676 461 687 470 696 c 0
 474 699 478 704 486 704 c 0
 503 704 503 688 503 671 c 2
 503 519 l 2
 503 502 503 486 486 486 c 0
 472 486 470 496 467 510 c 0
 448 594 351 669 279 669 c 0
 208 669 169 622 169 567 c 0
 169 497 268 458 357 422 c 1
 500 366 551 276 551 192 c 0
 551 61 428 -12 284 -12 c 0xb780
 268 -12 239 -12 198 3 c 0
 189 7 165 16 139 16 c 0x7780
 126 16 108 13 91 -3 c 0
 86 -9 83 -12 76 -12 c 0
 58 -12 58 4 58 21 c 2
 58 207 l 2
 58 224 58 240 76 240 c 0
 85 240 93 232 93 223 c 0
 93 201 95 147 154 87 c 0
 189 51 233 23 285 23 c 0xaf80
 384 23 415 64 415 135 c 0
 415 227 309 272 231 306 c 0
468 591 m 1
 468 651 l 1
 467 650 451 642 424 641 c 1
 452 612 461 602 468 591 c 1
435 59 m 1
 465 75 516 114 516 192 c 0
 516 246 493 284 461 319 c 1
 422 359 371 379 334 394 c 0
 244 430 134 476 134 567 c 0
 134 575 135 609 153 638 c 1
 152 639 l 1
 98 608 85 551 85 504 c 0
 85 410 174 368 268 328 c 0
 346 295 450 240 450 135 c 0
 450 128 449 88 435 59 c 1
EndSplineSet
EndChar

StartChar: T
Encoding: 19 84 19
Width: 702
Flags: W
HStem: 0 35<172.013 263.891 295 406 436.693 528.988> 650 35<85 145 192.447 269 304 397 432 511.073 556 617>
VStem: 50 35<480.013 560.691 598 650> 269 35<41.1326 649> 397 35<41.1326 649> 617 35<480.012 558.872 597 650>
LayerCount: 2
Fore
SplineSet
432 649 m 1
 432 93 l 2
 432 42 436 35 501 35 c 0
 512 35 529 35 529 18 c 0
 529 0 514 0 496 0 c 2
 206 0 l 2
 188 0 172 0 172 18 c 0
 172 35 190 35 202 35 c 0
 265 35 269 43 269 93 c 2
 269 649 l 1
 164 643 89 583 85 500 c 0
 85 498 84 480 67 480 c 0
 50 480 50 496 50 512 c 2
 50 653 l 2
 50 683 52 685 83 685 c 2
 618 685 l 2
 648 685 652 684 652 649 c 2
 652 516 l 2
 652 497 652 480 634 480 c 0
 618 480 617 495 616 510 c 0
 612 557 563 642 432 649 c 1
85 650 m 1
 85 598 l 1
 99 615 120 635 145 650 c 1
 85 650 l 1
617 650 m 1
 556 650 l 1
 583 633 606 611 617 597 c 1
 617 650 l 1
295 35 m 1
 406 35 l 1
 397 53 397 78 397 91 c 2
 397 650 l 1
 304 650 l 1
 304 91 l 2
 304 78 304 53 295 35 c 1
EndSplineSet
EndChar

StartChar: U
Encoding: 20 85 20
Width: 792
Flags: W
HStem: -19 42<309.666 514.755> 650 35<50.0117 129.37 160 266 296.532 384.988 524.012 580.326 612 654 685.471 741.989>
VStem: 133 35<128.855 645.28> 257 35<100.472 643.965> 612 42<130.024 609.043>
LayerCount: 2
Fore
SplineSet
558 685 m 2
 709 685 l 2
 727 685 742 685 742 667 c 0
 742 652 729 651 720 650 c 0
 654 642 654 542 654 480 c 2
 654 275 l 2
 654 199 654 -19 394 -19 c 0
 327 -19 258 -5 207 39 c 0
 133 102 133 192 133 239 c 2
 133 608 l 2
 133 649 117 649 72 650 c 0
 64 650 50 653 50 667 c 0
 50 685 66 685 84 685 c 2
 352 685 l 2
 370 685 385 685 385 667 c 0
 385 650 369 650 354 650 c 0
 295 650 292 640 292 593 c 2
 292 218 l 2
 292 45 359 23 424 23 c 0
 570 23 612 133 612 250 c 2
 612 515 l 2
 612 582 593 644 549 650 c 0
 538 651 524 653 524 667 c 0
 524 685 540 685 558 685 c 2
654 650 m 1
 612 650 l 1
 622 636 627 627 633 611 c 1
 639 627 644 636 654 650 c 1
257 216 m 2
 257 595 l 2
 257 610 257 632 266 650 c 1
 160 650 l 1
 165 639 166 626 167 625 c 0
 168 612 168 576 168 552 c 2
 168 273 l 2
 168 248 168 210 169 198 c 0
 176 115 215 47 314 25 c 1
 272 66 257 138 257 216 c 2
EndSplineSet
EndChar

StartChar: V
Encoding: 21 86 21
Width: 819
Flags: W
HStem: 650 35<50.0109 100.493 134 276 310.605 377.989 542.011 591.564 622 676 709.041 768.989>
VStem: 263 36<549.844 636.873> 599 35<561.724 643.9>
LayerCount: 2
Fore
SplineSet
686 599 m 2
 437 2 l 2
 431 -14 428 -19 417 -19 c 0
 408 -19 403 -13 396 2 c 2
 127 595 l 2
 125 598 104 645 71 650 c 0
 63 651 50 653 50 667 c 0
 50 685 65 685 83 685 c 2
 345 685 l 2
 363 685 378 685 378 667 c 0
 378 662 375 651 359 650 c 0
 322 647 299 626 299 619 c 0
 299 554 452 222 470 185 c 1
 543 368 543 370 550 390 c 0
 567 438 599 533 599 592 c 0
 599 644 578 648 563 650 c 0
 557 651 542 652 542 667 c 0
 542 685 557 685 575 685 c 2
 736 685 l 2
 754 685 769 685 769 667 c 0
 769 652 754 650 748 650 c 0
 706 646 691 611 686 599 c 2
676 650 m 1
 622 650 l 1
 633 632 634 605 634 592 c 0
 634 583 633 570 632 561 c 1
 637 572 648 598 652 609 c 0
 659 625 664 637 676 650 c 1
163 601 m 2
 417 42 l 1
 454 133 l 1
 391 272 263 552 263 620 c 0
 263 641 271 646 276 650 c 1
 134 650 l 1
 136 648 154 620 163 601 c 2
EndSplineSet
EndChar

StartChar: W
Encoding: 22 87 22
Width: 1084
Flags: W
HStem: 650 35<50.0109 93.7691 125 244 276.802 328.988 425.012 475.482 507 639 671.293 732.988 826.011 878.793 909 959 989.803 1033.99>
VStem: 238 35<544.075 643.463> 629 35<544.411 639.413> 889 35<564 640.357>
LayerCount: 2
Fore
SplineSet
976 603 m 2
 762 4 l 2
 757 -11 754 -19 742 -19 c 0
 730 -19 727 -12 721 5 c 2
 555 443 l 1
 362 1 l 2
 356 -12 353 -19 342 -19 c 0
 330 -19 327 -11 322 4 c 2
 108 605 l 2
 104 616 92 647 69 650 c 0
 64 651 50 653 50 667 c 0
 50 685 65 685 83 685 c 2
 295 685 l 2
 313 685 329 685 329 667 c 0
 329 652 313 650 310 650 c 0
 293 648 273 635 273 624 c 0
 273 589 312 465 335 397 c 2
 406 193 l 1
 536 492 l 1
 524 526 511 562 498 592 c 1
 477 645 459 647 441 650 c 0
 427 653 425 664 425 667 c 0
 425 685 441 685 459 685 c 2
 700 685 l 2
 718 685 733 685 733 667 c 0
 733 652 717 650 712 650 c 0
 687 648 668 631 664 626 c 1
 667 541 787 235 795 217 c 1
 845 363 889 492 889 578 c 0
 889 646 865 648 842 650 c 0
 833 651 826 658 826 667 c 0
 826 685 841 685 859 685 c 2
 1001 685 l 2
 1019 685 1034 685 1034 667 c 0
 1034 660 1030 652 1017 650 c 0
 998 648 988 637 976 603 c 2
959 650 m 1
 909 650 l 1
 924 624 924 601 924 564 c 1
 935 593 949 634 959 650 c 1
533 601 m 2
 742 49 l 1
 750 75 764 113 780 157 c 1
 763 199 629 542 629 620 c 0
 629 625 629 642 639 650 c 1
 507 650 l 1
 518 635 526 618 533 601 c 2
145 604 m 2
 344 47 l 1
 386 144 l 1
 359 218 238 552 238 625 c 0
 238 641 241 645 244 650 c 1
 125 650 l 1
 135 633 142 614 145 604 c 2
EndSplineSet
EndChar

StartChar: X
Encoding: 23 88 23
Width: 786
Flags: W
HStem: 0 35<50.0109 106.663 143 208 238.728 287.988 403.012 490.152 525 657 695.142 735.989> 650 35<54.0109 109.078 140 268 304.754 376.988 457.011 503.08 534 599 640.086 722.989>
VStem: 195 34<44.437 84> 511 35<603 642.961>
LayerCount: 2
Fore
SplineSet
490 685 m 2
 690 685 l 2
 708 685 723 685 723 667 c 0
 723 652 709 651 699 650 c 0
 618 643 566 577 516 511 c 2
 466 446 l 2
 453 428 442 414 440 411 c 1
 576 210 l 2
 617 149 681 57 695 44 c 0
 698 42 703 38 720 35 c 0
 728 33 736 28 736 18 c 0
 736 0 721 0 703 0 c 2
 436 0 l 2
 418 0 403 0 403 18 c 0
 403 35 420 35 429 35 c 0
 449 35 473 37 491 49 c 1
 483 72 474 99 364 266 c 1
 326 224 287 181 251 138 c 0
 245 130 229 112 229 85 c 0
 229 84 229 41 266 35 c 0
 274 34 288 32 288 18 c 0
 288 0 272 0 254 0 c 2
 83 0 l 2
 65 0 50 0 50 18 c 0
 50 31 61 33 71 35 c 0
 111 43 157 95 231 178 c 1
 339 302 l 1
 319 333 177 547 120 619 c 0
 103 641 99 646 69 650 c 0
 54 653 54 666 54 667 c 0
 54 685 69 685 87 685 c 2
 344 685 l 2
 362 685 377 685 377 667 c 0
 377 650 360 650 353 650 c 0
 342 650 320 648 304 639 c 1
 311 618 317 600 415 449 c 1
 431 468 453 497 471 522 c 0
 499 559 511 574 511 602 c 0
 511 606 511 646 476 650 c 0
 467 651 457 655 457 667 c 0
 457 685 472 685 490 685 c 2
599 650 m 1
 534 650 l 1
 543 636 546 619 546 603 c 1
 565 621 581 637 599 650 c 1
193 84 m 2
 143 35 l 1
 208 35 l 1
 205 39 199 50 195 70 c 0
 195 72 193 83 193 84 c 2
268 650 m 1
 140 650 l 1
 221 549 435 222 476 156 c 1
 516 88 527 61 527 46 c 0
 527 42 526 38 525 35 c 1
 657 35 l 1
 585 126 366 460 330 516 c 1
 268 617 268 630 268 650 c 1
EndSplineSet
EndChar

StartChar: Y
Encoding: 24 89 24
Width: 784
Flags: W
HStem: 0 35<218.014 303.5 335 450 481.537 566.988> 650 35<50.0123 102.183 134 251 285.555 337.988 514.012 574.328 606 656 689.146 733.989>
VStem: 311 35<42.6369 263> 439 35<42.6049 304>
LayerCount: 2
Fore
SplineSet
453 335 m 1
 582 543 l 2
 592 559 595 575 595 584 c 0
 595 599 586 644 536 650 c 0
 529 651 514 652 514 667 c 0
 514 685 530 685 548 685 c 2
 701 685 l 2
 719 685 734 685 734 667 c 0
 734 654 722 651 715 650 c 0
 685 643 645 579 604 514 c 2
 474 304 l 1
 474 105 l 2
 474 46 481 35 537 35 c 0
 550 35 567 35 567 18 c 0
 567 0 552 0 534 0 c 2
 252 0 l 2
 234 0 218 0 218 18 c 0
 218 35 237 35 244 35 c 0
 303 36 311 42 311 105 c 2
 311 263 l 1
 111 618 l 2
 96 644 94 649 73 650 c 0
 67 650 50 651 50 667 c 0
 50 685 66 685 84 685 c 2
 305 685 l 2
 323 685 338 685 338 667 c 0
 338 650 321 650 313 650 c 0
 299 650 297 649 285 645 c 1
 289 629 289 627 298 612 c 0
 302 604 313 584 318 577 c 2
 453 335 l 1
656 650 m 1
 606 650 l 1
 615 640 622 625 626 612 c 1
 631 619 652 645 656 650 c 1
335 35 m 1
 450 35 l 1
 439 57 439 91 439 103 c 2
 439 290 l 1
 420 321 323 495 305 527 c 0
 297 542 275 579 267 594 c 0
 250 628 250 635 251 650 c 1
 134 650 l 1
 346 272 l 1
 346 103 l 2
 346 92 346 57 335 35 c 1
EndSplineSet
EndChar

StartChar: Z
Encoding: 25 90 25
Width: 708
Flags: W
HStem: 0 35<99 201 242 478.547 529 598.384> 650 35<135 188 240.255 435 476 578>
LayerCount: 2
Fore
SplineSet
618 649 m 2
 242 35 l 1
 384 35 l 2
 526 35 604 131 621 213 c 1
 624 233 626 243 641 243 c 0
 649 243 658 236 658 225 c 1
 631 28 l 2
 627 2 627 0 597 0 c 2
 84 0 l 2
 66 0 50 0 50 18 c 0
 50 21 50 23 59 36 c 2
 435 650 l 1
 354 650 l 2
 320 650 250 647 193 610 c 1
 132 572 123 528 119 504 c 0
 117 496 111 489 102 489 c 0
 95 489 84 494 84 508 c 1
 86 521 l 1
 101 656 l 2
 104 682 104 685 136 685 c 2
 594 685 l 2
 612 685 627 685 627 667 c 0
 627 664 627 662 618 649 c 2
135 650 m 1
 130 605 l 1
 142 616 161 634 188 649 c 1
 188 650 l 1
 135 650 l 1
476 650 m 1
 99 35 l 1
 201 35 l 1
 578 650 l 1
 476 650 l 1
529 36 m 1
 529 35 l 1
 597 35 l 1
 602 71 604 82 606 102 c 1
 583 74 557 52 529 36 c 1
EndSplineSet
EndChar
